# xmcd
#
# Track frame offsets:
#	183
#	10845
#	20850
#	30315
#	44743
#	56933
#	65885
#	76230
#	86858
#	97193
#	110455
#	123850
#	134023
#	145725
#	159078
#	168785
#	180098
#	191095
#	201845
#	212808
#	225013
#	238043
#	249180
#	259685
#	266130
#	276115
#	286550
#	299268
#	309503
#
# Disc length: 4299 seconds
#
# Revision: 1
# Processed by: cddbd v1.5.2PL0 Copyright (c) Steve Scherf et al.
# Submitted via: EZCDAudioConverter 6.0.5.1
#
DISCID=9c10c91d
DTITLE=Mickey Gilley - That Heart Belongs To Me
DYEAR=1995
DGENRE=Country
TTITLE0=I`m  To Blame
TTITLE1=Night After Night
TTITLE2=Susie Q
TTITLE3=I`ll Make It All Up To You
TTITLE4=Breathless
TTITLE5=Is It Wrong
TTITLE6=Lonely Wine
TTITLE7=Forgive
TTITLE8=My Babe
TTITLE9=Turn Around And Look At Me
TTITLE10=She`s  Still Got A Hold On You
TTITLE11=Running Out Of Reasons
TTITLE12=World Of Our Own
TTITLE13=That Heart Belong To Me
TTITLE14=I`m Gonna Put My Love In The Want ADS
TTITLE15=Without You
TTITLE16=It`s Just A Matter Of Making Up My Mind
TTITLE17=A New Way To Live
TTITLE18=There`s No One Like You
TTITLE19=You Can Count Me Missing
TTITLE20=Still Care About You
TTITLE21=Grapevine
TTITLE22=That`s How It`s Got To Be
TTITLE23=The Boy Who Didn`t Pass
TTITLE24=Fraulein
TTITLE25=I Miss You So
TTITLE26=Just Out Of Reach
TTITLE27=Keepin` On
TTITLE28=Watching The Way
EXTD=
EXTT0=
EXTT1=
EXTT2=
EXTT3=
EXTT4=
EXTT5=
EXTT6=
EXTT7=
EXTT8=
EXTT9=
EXTT10=
EXTT11=
EXTT12=
EXTT13=
EXTT14=
EXTT15=
EXTT16=
EXTT17=
EXTT18=
EXTT19=
EXTT20=
EXTT21=
EXTT22=
EXTT23=
EXTT24=
EXTT25=
EXTT26=
EXTT27=
EXTT28=
PLAYORDER=
